<svg width="35" height="36" viewBox="0 0 35 36"  xmlns="http://www.w3.org/2000/svg">
<path d="M17.5 0.5625C7.83266 0.5625 0 8.36719 0 18C0 27.6328 7.83266 35.4375 17.5 35.4375C27.1673 35.4375 35 27.6328 35 18C35 8.36719 27.1673 0.5625 17.5 0.5625ZM17.5 7.3125C20.9294 7.3125 23.7097 10.0828 23.7097 13.5C23.7097 16.9172 20.9294 19.6875 17.5 19.6875C14.0706 19.6875 11.2903 16.9172 11.2903 13.5C11.2903 10.0828 14.0706 7.3125 17.5 7.3125ZM17.5 31.5C13.3579 31.5 9.64617 29.6297 7.1623 26.7047C8.48891 24.2156 11.0857 22.5 14.1129 22.5C14.2823 22.5 14.4516 22.5281 14.6139 22.5773C15.5312 22.8727 16.4909 23.0625 17.5 23.0625C18.5091 23.0625 19.4758 22.8727 20.3861 22.5773C20.5484 22.5281 20.7177 22.5 20.8871 22.5C23.9143 22.5 26.5111 24.2156 27.8377 26.7047C25.3538 29.6297 21.6421 31.5 17.5 31.5Z" />
</svg>
