<svg xmlns="http://www.w3.org/2000/svg" viewBox="0 0 47.31 43.07">
  <g id="Layer_2" data-name="Layer 2">
    <g id="Layer_1-2" data-name="Layer 1">
      <g>
        <path d="M11.89,0C6.32,0,0,2.78,0,9.74V20c1.79-4.8,14.69-4.35,20.23-10.89C11.62,19.25,2.92,15.75,0,23.88V37.06H3.26l30.43-.11h3.5c5.94,0,10.12-1.9,10.12-9V0Z" style="fill: #c4161c"/>
        <path d="M4.81,12.39C2.57,5.88,13.62,4.07,23,5.44c-17.53-1-18.21,7-18.21,7" style="fill: #fff200"/>
        <path d="M8.47,19.63c3.65.19,14.19.74,20-16.63-4.25,15.33-11.89,19.94-20,16.63" style="fill: #fff200"/>
        <path d="M1.81,39.93a.69.69,0,0,0-.25,0,.39.39,0,0,0-.22.11l-.07.09-.06.13s0,.11,0,.18a2,2,0,0,0,0,.26,2.29,2.29,0,0,1-.06.58,1,1,0,0,1-.23.37.89.89,0,0,1-.33.19,1.13,1.13,0,0,1-.41,0v-.39a.64.64,0,0,0,.28,0,.64.64,0,0,0,.2-.11l.06-.08a.52.52,0,0,0,.06-.13c0-.05,0-.11,0-.19a1.93,1.93,0,0,0,0-.26,2.26,2.26,0,0,1,.06-.57.93.93,0,0,1,.23-.37,1,1,0,0,1,.74-.23Z"/>
        <path d="M2.4,40.89l1.46-.62A1,1,0,0,0,3.57,40a.76.76,0,0,0-.38-.11.62.62,0,0,0-.29.07.53.53,0,0,0-.25.17.77.77,0,0,0-.19.27.86.86,0,0,0-.07.36.91.91,0,0,0,0,.17m1.93.28A1.13,1.13,0,0,1,3.21,42a1.28,1.28,0,0,1-.48-.09,1.31,1.31,0,0,1-.38-.27,1.16,1.16,0,0,1-.26-.39A1.3,1.3,0,0,1,2,40.72a1.28,1.28,0,0,1,.09-.48,1.2,1.2,0,0,1,.26-.4,1.17,1.17,0,0,1,.84-.36,1.19,1.19,0,0,1,.37.06,1.41,1.41,0,0,1,.34.19,1.63,1.63,0,0,1,.27.31,1.36,1.36,0,0,1,.17.41l-1.81.76a.71.71,0,0,0,.29.28.87.87,0,0,0,.39.1.83.83,0,0,0,.43-.11,1.08,1.08,0,0,0,.29-.31Z"/>
        <path d="M6.53,41.74a1.08,1.08,0,0,1-.69.22,1.06,1.06,0,0,1-.46-.1A1.08,1.08,0,0,1,5,41.6a1.33,1.33,0,0,1-.26-.39,1.28,1.28,0,0,1-.09-.48,1.3,1.3,0,0,1,.09-.49A1.33,1.33,0,0,1,5,39.85a1.11,1.11,0,0,1,.37-.27,1.06,1.06,0,0,1,.46-.1,1.1,1.1,0,0,1,.37.06,1.07,1.07,0,0,1,.32.16,1.48,1.48,0,0,1,.25.25,1.37,1.37,0,0,1,.16.32H6.53a.89.89,0,0,0-.28-.3.7.7,0,0,0-.41-.11.67.67,0,0,0-.31.07.72.72,0,0,0-.25.18.88.88,0,0,0-.17.28.93.93,0,0,0-.06.34.84.84,0,0,0,.48.79.82.82,0,0,0,.31.07.69.69,0,0,0,.41-.12.74.74,0,0,0,.28-.3h.41a1.08,1.08,0,0,1-.41.57"/>
        <path d="M9,39.55h.39V41a1,1,0,0,1-.08.4.85.85,0,0,1-.21.31.83.83,0,0,1-.31.2,1,1,0,0,1-.39.07A1,1,0,0,1,8,41.89a1,1,0,0,1-.32-.2.85.85,0,0,1-.21-.31,1,1,0,0,1-.07-.4V39.55h.39V41a.59.59,0,0,0,.16.43.56.56,0,0,0,.44.18.55.55,0,0,0,.43-.18A.59.59,0,0,0,9,41Z"/>
        <path d="M10,40a.83.83,0,0,1,.24-.33,1,1,0,0,1,.36-.19,1.28,1.28,0,0,1,.44,0v.36a.75.75,0,0,0-.55.13.62.62,0,0,0-.19.5v1.42H9.93V40.5A1.11,1.11,0,0,1,10,40"/>
        <path d="M11.88,41.91h-.39V39.55h.39Zm-.39-2.72V38.9a.18.18,0,0,1,.06-.14.21.21,0,0,1,.13,0,.25.25,0,0,1,.15,0,.22.22,0,0,1,.05.14v.29Z"/>
        <path d="M12.91,41.91h-.39V40.47a1,1,0,0,1,.08-.4.85.85,0,0,1,.21-.31.92.92,0,0,1,.31-.2,1.12,1.12,0,0,1,.78,0,.87.87,0,0,1,.32.2,1,1,0,0,1,.2.31,1,1,0,0,1,.08.4v1.44h-.4V40.46A.65.65,0,0,0,14,40a.6.6,0,0,0-.44-.17.58.58,0,0,0-.43.17.62.62,0,0,0-.17.44Z"/>
        <path d="M16.87,40.38a1,1,0,0,0-.17-.28.92.92,0,0,0-.25-.19.72.72,0,0,0-.62,0,.79.79,0,0,0-.25.19.9.9,0,0,0-.18.28,1,1,0,0,0-.06.35.93.93,0,0,0,.06.34.9.9,0,0,0,.18.28.79.79,0,0,0,.25.19.81.81,0,0,0,.31.06.67.67,0,0,0,.31-.07.64.64,0,0,0,.25-.18,1,1,0,0,0,.17-.28.8.8,0,0,0,.07-.34.84.84,0,0,0-.07-.35m.46,1.42a1.4,1.4,0,0,1-.09.51,1.24,1.24,0,0,1-.25.4,1,1,0,0,1-.39.26,1.26,1.26,0,0,1-.49.1,1.23,1.23,0,0,1-.39-.06,1.66,1.66,0,0,1-.33-.15,1.18,1.18,0,0,1-.25-.25.92.92,0,0,1-.14-.32h.41a.66.66,0,0,0,.15.21.8.8,0,0,0,.39.18h.16a.86.86,0,0,0,.38-.08.61.61,0,0,0,.26-.21.62.62,0,0,0,.14-.28,1.25,1.25,0,0,0,.05-.32v-.23a1,1,0,0,1-.35.29,1,1,0,0,1-.46.11,1,1,0,0,1-.46-.1,1.08,1.08,0,0,1-.37-.26,1.14,1.14,0,0,1-.25-.39,1.16,1.16,0,0,1-.1-.49,1.13,1.13,0,0,1,.1-.49,1.18,1.18,0,0,1,.25-.4,1.42,1.42,0,0,1,.38-.26,1.18,1.18,0,0,1,.46-.09,1.19,1.19,0,0,1,.47.09,1.11,1.11,0,0,1,.37.27,1.31,1.31,0,0,1,.35.88Z"/>
        <path d="M21.19,39.55v2.53a1.25,1.25,0,0,1-.07.41.89.89,0,0,1-.21.31.83.83,0,0,1-.32.2,1.23,1.23,0,0,1-.39.07.93.93,0,0,1-.34-.06.73.73,0,0,1-.29-.15.88.88,0,0,1-.22-.25,1,1,0,0,1-.12-.32h.4a.61.61,0,0,0,.2.29.56.56,0,0,0,.37.11.59.59,0,0,0,.44-.17.6.6,0,0,0,.16-.44v-.35a.8.8,0,0,1-.6.23,1,1,0,0,1-.38-.07,1,1,0,0,1-.32-.2.83.83,0,0,1-.2-.31,1,1,0,0,1-.08-.4V39.55h.39V41a.59.59,0,0,0,.16.43.56.56,0,0,0,.44.18.55.55,0,0,0,.43-.18A.59.59,0,0,0,20.8,41V39.55Z"/>
        <path d="M23.16,41.52a.76.76,0,0,0,.26-.18,1,1,0,0,0,.17-.27,1,1,0,0,0,.06-.34.88.88,0,0,0-.06-.33.78.78,0,0,0-.17-.28.74.74,0,0,0-.88-.19.64.64,0,0,0-.25.19.78.78,0,0,0-.17.28.88.88,0,0,0-.06.33,1,1,0,0,0,.06.34,1,1,0,0,0,.17.27.72.72,0,0,0,.25.18.72.72,0,0,0,.62,0m.16-1.94a1.15,1.15,0,0,1,.38.27,1.36,1.36,0,0,1,.25.4,1.33,1.33,0,0,1,0,1,1.3,1.3,0,0,1-.25.39,1,1,0,0,1-.38.27,1.13,1.13,0,0,1-.93,0A1,1,0,0,1,22,41.6a1.14,1.14,0,0,1-.25-.39,1.32,1.32,0,0,1,0-1,1.18,1.18,0,0,1,.25-.4,1.15,1.15,0,0,1,.38-.27,1,1,0,0,1,.46-.1,1,1,0,0,1,.47.1"/>
        <path d="M26.09,39.55h.39V41a1,1,0,0,1-.07.4.85.85,0,0,1-.21.31.87.87,0,0,1-.32.2,1,1,0,0,1-.38.07,1,1,0,0,1-.39-.07.83.83,0,0,1-.31-.2.85.85,0,0,1-.21-.31,1,1,0,0,1-.08-.4V39.55h.39V41a.63.63,0,0,0,.16.43.57.57,0,0,0,.44.18.54.54,0,0,0,.43-.18.59.59,0,0,0,.16-.43Z"/>
        <path d="M27.14,40a.76.76,0,0,1,.25-.33.89.89,0,0,1,.36-.19,1.22,1.22,0,0,1,.43,0v.36a.72.72,0,0,0-.54.13.63.63,0,0,0-.2.5v1.42h-.39V40.5a1.11,1.11,0,0,1,.09-.46"/>
        <path d="M30.29,39.55h.53v.38h-.53v2H29.9V39.46a1,1,0,0,1,.27-.77.78.78,0,0,1,.66-.17v.35a.55.55,0,0,0-.4.1.36.36,0,0,0-.11.23,1.22,1.22,0,0,0,0,.26Z"/>
        <path d="M32.81,39.55h.39V41a1,1,0,0,1-.08.4.85.85,0,0,1-.21.31.92.92,0,0,1-.31.2,1,1,0,0,1-.39.07,1,1,0,0,1-.39-.07.92.92,0,0,1-.31-.2.85.85,0,0,1-.21-.31,1,1,0,0,1-.07-.4V39.55h.38V41a.6.6,0,0,0,.17.43.54.54,0,0,0,.43.18.56.56,0,0,0,.44-.18.63.63,0,0,0,.16-.43Z"/>
        <path d="M34.71,41.91a1.09,1.09,0,0,1-.37,0,.62.62,0,0,1-.3-.16.63.63,0,0,1-.19-.28,1,1,0,0,1-.07-.39V39h.39v.51h.53v.37h-.53v1.13a.62.62,0,0,0,0,.25.4.4,0,0,0,.12.16.53.53,0,0,0,.17.08.74.74,0,0,0,.21,0Z"/>
        <path d="M36.73,39.55h.39V41a1,1,0,0,1-.08.4.85.85,0,0,1-.21.31.92.92,0,0,1-.31.2,1.12,1.12,0,0,1-.78,0,.83.83,0,0,1-.31-.2.85.85,0,0,1-.21-.31,1,1,0,0,1-.08-.4V39.55h.39V41a.6.6,0,0,0,.17.43.54.54,0,0,0,.43.18.57.57,0,0,0,.44-.18.63.63,0,0,0,.16-.43Z"/>
        <path d="M37.77,40a.76.76,0,0,1,.25-.33.89.89,0,0,1,.36-.19,1.22,1.22,0,0,1,.43,0v.36a.73.73,0,0,0-.54.13.63.63,0,0,0-.2.5v1.42h-.39V40.5a1.11,1.11,0,0,1,.09-.46"/>
        <path d="M39.45,40.89l1.46-.62a.86.86,0,0,0-.29-.31.77.77,0,0,0-.39-.11.61.61,0,0,0-.28.07.69.69,0,0,0-.26.17.91.91,0,0,0-.18.27.86.86,0,0,0-.07.36.91.91,0,0,0,0,.17m1.93.28a1.15,1.15,0,0,1-1.12.79,1.28,1.28,0,0,1-.48-.09,1.31,1.31,0,0,1-.38-.27,1.16,1.16,0,0,1-.26-.39,1.3,1.3,0,0,1-.09-.49,1.28,1.28,0,0,1,.09-.48,1.2,1.2,0,0,1,.26-.4,1.08,1.08,0,0,1,.37-.26,1.06,1.06,0,0,1,.46-.1,1.21,1.21,0,0,1,.38.06,1.41,1.41,0,0,1,.34.19,1.63,1.63,0,0,1,.27.31,1.36,1.36,0,0,1,.17.41l-1.81.76a.71.71,0,0,0,.29.28.87.87,0,0,0,.39.1.77.77,0,0,0,.42-.11,1,1,0,0,0,.3-.31Z"/>
        <polygon points="12.36 29.56 12.36 30.3 17.35 30.3 17.35 31.54 12.36 31.54 12.36 34.62 11.12 34.62 11.12 28.33 18.88 28.33 18.88 29.56 12.36 29.56" style="fill: #fff"/>
        <path d="M27.37,34.48a.53.53,0,0,1-.4.18.77.77,0,0,1-.45-.17L21,30.21v4.41H19.76V29a.73.73,0,0,1,.16-.48.52.52,0,0,1,.4-.18.68.68,0,0,1,.44.18l5.52,4.28V28.33h1.24V34a.72.72,0,0,1-.15.47" style="fill: #fff"/>
        <path d="M34.83,30.08c0-.35-.51-.52-1.54-.52H29.54v1.86h3.75a4.69,4.69,0,0,0,.89-.09c.44-.08.65-.23.65-.44ZM35,32.4a5.2,5.2,0,0,1-1.7.25H29.54v2H28.31V28.33h5c1.84,0,2.77.47,2.77,1.4v1.53c0,.52-.35.9-1.07,1.14" style="fill: #fff"/>
        <polygon points="38 29.56 38 30.3 43 30.3 43 31.54 38 31.54 38 34.62 36.77 34.62 36.77 28.33 44.52 28.33 44.52 29.56 38 29.56" style="fill: #fff"/>
      </g>
    </g>
  </g>
</svg>
