<svg width="47" height="39" viewBox="0 0 47 39" fill="none" xmlns="http://www.w3.org/2000/svg">
<g clip-path="url(#clip0_13842_88800)">
<path d="M27.9675 0.5C30.5417 0.5 33.0011 1.01155 35.2463 1.93922C37.5756 2.90125 39.6716 4.31374 41.4272 6.066C43.179 7.81445 44.5942 9.90647 45.5581 12.239C46.4875 14.4799 47.0001 16.9346 47.0001 19.5C47.0001 22.0692 46.4875 24.5239 45.5581 26.7648C44.5942 29.0897 43.179 31.1817 41.4234 32.934C39.6716 34.6824 37.5756 36.0949 35.2386 37.057C32.9934 37.9846 30.534 38.4962 27.9637 38.4962C25.3896 38.4962 22.9302 37.9846 20.685 37.057C18.3556 36.0949 16.2596 34.6824 14.5078 32.934L14.504 32.9302C12.7484 31.1779 11.337 29.0859 10.3731 26.7648C10.0748 26.0433 9.81852 25.3027 9.60815 24.543C10.0059 24.5812 10.4114 24.6003 10.8206 24.6003C11.5971 24.6003 12.3544 24.5315 13.0926 24.3979C13.215 24.7644 13.3489 25.1271 13.4942 25.4821C14.286 27.3909 15.4487 29.1088 16.8945 30.5518C18.3403 31.9949 20.0653 33.1554 21.974 33.9456C23.8137 34.7053 25.8371 35.1291 27.9637 35.1291C30.0903 35.1291 32.1099 34.7092 33.9534 33.9456C35.8659 33.1554 37.5871 31.9949 39.0329 30.5518C40.4787 29.1088 41.6414 27.3871 42.4332 25.4821C43.1943 23.6459 43.6189 21.6264 43.6189 19.5038C43.6189 17.3813 43.1982 15.3656 42.4332 13.5255C41.6414 11.6167 40.4787 9.89883 39.0329 8.4558C37.5871 7.01276 35.8621 5.85222 33.9534 5.06199C32.1137 4.30229 30.0903 3.87854 27.9637 3.87854C25.8371 3.87854 23.8175 4.29847 21.974 5.06199C21.8095 5.1307 21.645 5.20323 21.4844 5.27577C20.8571 4.29084 20.0998 3.39753 19.2315 2.62256C19.7058 2.37824 20.1916 2.153 20.685 1.94686C22.9378 1.01155 25.3934 0.5 27.9675 0.5ZM25.7835 10.4677C25.7835 10.0019 25.9748 9.58198 26.2769 9.27657C26.5829 8.97117 27.0037 8.78411 27.4703 8.78411C27.9369 8.78411 28.3577 8.97117 28.6637 9.27657C28.9696 9.58198 29.1571 10.0019 29.1571 10.4677V19.332L35.7932 23.2603C36.191 23.497 36.4587 23.8749 36.5658 24.291C36.6729 24.7072 36.6232 25.1653 36.3861 25.5623V25.5661C36.1489 25.9631 35.7703 26.2304 35.3534 26.3373C34.9364 26.4441 34.4775 26.3945 34.0797 26.1578H34.0758L26.6518 21.7638C26.3955 21.6226 26.1851 21.4164 26.0321 21.1721C25.8753 20.9163 25.7835 20.6147 25.7835 20.2941V10.4677Z" fill="#393939"/>
<path fill-rule="evenodd" clip-rule="evenodd" d="M10.3195 1.50781C16.0186 1.50781 20.639 6.11943 20.639 11.8076C20.639 17.4958 16.0186 22.1074 10.3195 22.1074C4.62044 22.1074 0 17.4958 0 11.8076C0 6.11943 4.62044 1.50781 10.3195 1.50781ZM10.3195 17.7134L15.8579 10.8799H12.4194V7.24561H8.21964V10.8799H4.78109L10.3195 17.7134Z" fill="#FF4141"/>
</g>
<defs>
<clipPath id="clip0_13842_88800">
<rect width="47" height="38" fill="white" transform="translate(0 0.5)"/>
</clipPath>
</defs>
</svg>
