<svg width="138" height="138" viewBox="0 0 138 138" fill="none" xmlns="http://www.w3.org/2000/svg">
<rect width="138" height="138" fill="white"/>
<path fill-rule="evenodd" clip-rule="evenodd" d="M29.0855 61.1719C28.1656 54.3441 29.8284 47.7639 34.5336 42.5634C39.8048 36.6908 47.8001 33.6837 55.5831 33.7191C63.6138 33.7191 71.1845 36.9738 76.3496 43.1294C80.0642 40.7945 84.5572 39.804 88.9439 40.2992C93.1892 40.7945 97.4699 42.7757 99.9817 46.3842C101.644 48.7898 102.246 51.5846 101.963 54.4148C107.517 56.1837 112.894 59.1554 116.609 63.7191C119.722 67.5752 121.385 72.3158 120.89 77.304C120.394 82.186 117.847 86.4667 114.133 89.5799C109.498 93.5068 103.449 95.3818 97.4699 95.9125H97.3991L34.4628 95.8417C26.6444 95.5233 19.8166 90.712 17.5878 83.0705C16.385 78.9313 16.7741 74.5445 18.6845 70.7238C20.8779 66.337 24.734 63.1884 29.1208 61.1365" fill="#EEF7FD"/>
<path fill-rule="evenodd" clip-rule="evenodd" d="M103.66 72.1393C169.745 60.0049 52.0802 44.4389 34.25 52.1511C53.6722 52.7525 132.811 59.545 103.66 72.1393Z" fill="#004071"/>
<path fill-rule="evenodd" clip-rule="evenodd" d="M71.963 36.5845H67.2578C66.3734 36.5845 65.3828 36.6199 64.4984 36.8675C63.7908 37.0444 63.1541 37.3628 62.5526 37.752L60.6423 39.0255L62.7295 32.127H91.2437L90.4654 33.4005C89.8286 34.3911 89.0149 35.2402 87.9536 35.7708C86.7861 36.3369 85.4418 36.4784 84.1682 36.4784H78.6493C78.5786 38.601 78.5078 40.6883 78.4725 42.7402C78.4371 45.252 78.4017 47.7991 78.4017 50.3463C78.4017 53.035 78.4017 55.6883 78.4725 58.377C78.4725 59.8274 78.5432 61.3486 78.6847 62.7637C78.7555 63.4359 78.9677 65.2402 79.463 65.7354L80.772 67.1505H69.9111L71.2201 65.7354C71.7154 65.2048 71.9276 63.4713 71.9984 62.7991C72.1399 61.4902 72.1753 60.0751 72.2107 58.7307C72.2814 56.3604 72.2814 53.9902 72.2814 51.6199V49.6034C72.2814 47.127 72.2814 44.6152 72.2107 42.1387C72.1753 40.2991 72.1045 38.4595 72.0338 36.6199M50.5951 65.7354C51.0904 65.2048 51.3026 63.4005 51.3734 62.7284C51.5149 61.3486 51.5503 59.8982 51.5857 58.4831C51.6564 56.0067 51.6564 53.5303 51.6564 51.0892V48.9666C51.6564 46.3133 51.6564 43.6246 51.5857 40.9713C51.5857 39.5208 51.5149 37.9996 51.3734 36.5491C51.3026 35.877 51.0904 34.0727 50.5951 33.5774L49.2861 32.1977H60.2177L58.8734 33.6128C58.4135 34.1081 58.1658 35.877 58.0951 36.5137C57.9536 37.8227 57.9182 39.2378 57.8828 40.5821C57.8121 42.9524 57.8121 45.3227 57.8121 47.693V51.726C57.8121 54.0963 57.8121 56.4666 57.8828 58.8369C57.8828 60.1812 57.9536 61.5963 58.0951 62.9053C58.1658 63.542 58.3781 65.3109 58.8734 65.8062L60.2177 67.2213H49.2861L50.5951 65.8062V65.7354Z" fill="white"/>
<path d="M71.7861 66.2667C72.246 65.7714 72.5998 64.6393 72.7767 62.8704C72.989 61.1016 73.0597 57.3516 73.0597 51.6204V49.6039C73.0597 46.8091 73.0597 44.2973 72.989 42.1039C72.9536 39.9105 72.8828 37.7879 72.7767 35.7714H67.2578C66.0196 35.7714 65.0644 35.8775 64.2861 36.0898C63.5078 36.302 62.8003 36.6204 62.0927 37.0803L63.3309 32.9766H89.7225C89.121 33.9318 88.4135 34.6039 87.5291 35.0284C86.68 35.453 85.5125 35.6299 84.0975 35.6299H77.8003C77.6941 38.0001 77.6234 40.3351 77.588 42.7053C77.5526 45.111 77.5173 47.6228 77.5173 50.3115C77.5173 56.8563 77.6234 61.0308 77.8003 62.8351C77.9772 64.6393 78.3309 65.7714 78.7908 66.302H71.7508L71.7861 66.2667ZM51.1611 66.2667C51.621 65.7714 51.9748 64.6039 52.1517 62.7643C52.364 60.9247 52.4347 57.0332 52.4347 51.0544V48.9318C52.4347 42.3869 52.3286 38.2478 52.1517 36.4435C51.9748 34.6393 51.621 33.5072 51.1611 32.9766H58.2012C57.7413 33.4718 57.3875 34.6039 57.2107 36.3374C56.9984 38.1063 56.9276 41.8209 56.9276 47.5874V51.6204C56.9276 57.3869 57.0338 61.1369 57.2107 62.9058C57.3875 64.6747 57.7413 65.8068 58.2012 66.302H51.1611V66.2667Z" fill="#009EE2"/>
<path fill-rule="evenodd" clip-rule="evenodd" d="M34.8515 53.3887C-31.4103 64.4618 79.427 80.7 97.3987 73.2708C78.0119 72.3863 5.48829 65.5231 34.8515 53.3887Z" fill="#009EE2"/>
<path d="M99.5215 86.3608C99.5215 86.3608 99.6276 86.3608 99.6984 86.3608C99.7692 86.3608 99.8045 86.3608 99.8399 86.3608C100.123 86.3608 100.371 86.4669 100.547 86.6438C100.724 86.8207 101.043 87.316 101.432 88.0943L103.838 93.1178L106.703 88.7311C107.305 87.7759 108.012 86.8914 108.755 86.1131C109.498 85.3348 110.347 84.6273 111.267 83.9551L104.793 94.3914L108.578 101.502C109.144 102.564 109.639 103.377 110.064 103.908C110.488 104.439 110.913 104.828 111.373 105.04L109.215 105.429C109.215 105.429 109.073 105.429 108.967 105.465C108.755 105.5 108.649 105.535 108.578 105.535C108.154 105.535 107.764 105.394 107.446 105.111C107.128 104.828 106.774 104.297 106.349 103.483L102.847 96.8679L99.946 101.962L99.8753 102.068C99.2385 103.236 98.9201 104.049 98.9201 104.58C98.9201 104.686 98.9201 104.757 98.9201 104.828C98.9201 104.899 98.9555 104.969 98.9909 105.04H95.1347C96.1607 104.332 97.4696 102.74 99.0616 100.193C99.2385 99.9103 99.38 99.6627 99.4861 99.5212L101.927 95.7358L99.0262 89.8985C98.3894 88.6957 97.9295 87.8466 97.6111 87.4575C97.2927 87.0329 96.9743 86.7853 96.6559 86.6792L99.5215 86.4669V86.3608ZM90.9602 105.217C90.7833 104.792 90.6772 104.297 90.6064 103.766C90.5003 103.236 90.4649 102.634 90.4295 102.033C89.8989 103.13 89.1913 104.014 88.2715 104.58C87.3871 105.182 86.3611 105.465 85.1937 105.465C83.7786 105.465 82.5404 105.04 81.5498 104.156C80.5239 103.307 80.0286 102.281 80.0286 101.149C80.0286 100.087 80.4531 99.132 81.3022 98.3537C82.1512 97.5754 83.9909 96.5495 86.821 95.3112C88.5192 94.5683 89.5451 93.9315 89.9343 93.4716C90.288 93.0117 90.5003 92.2334 90.5003 91.1721C90.5003 89.8631 90.2173 88.9079 89.6512 88.3419C89.0852 87.7405 88.2008 87.4575 87.0333 87.4575C86.4673 87.4575 86.0074 87.5636 85.5475 87.7405C85.1229 87.9174 84.7692 88.2004 84.5215 88.5542C84.4154 88.7311 84.2739 89.0141 84.097 89.4386C83.6017 90.6414 82.9295 91.2782 82.1159 91.2782C81.656 91.2782 81.3022 91.1367 81.0192 90.8537C80.7361 90.5707 80.5946 90.2169 80.5946 89.757C80.5946 88.6957 81.3022 87.8466 82.7173 87.1745C84.1324 86.5023 86.0427 86.1485 88.413 86.1485C90.2173 86.1485 91.5262 86.4669 92.3045 87.0683C93.0828 87.6697 93.5074 88.6957 93.5074 90.1108C93.5074 90.323 93.5074 91.349 93.4012 93.1178C93.3305 94.8867 93.2951 96.5494 93.2951 98.1414C93.2951 100.158 93.4012 101.715 93.6489 102.882C93.8965 104.014 94.2503 104.757 94.7102 105.005L91.031 105.252L90.9602 105.217ZM90.3234 95.099C87.2456 96.3372 85.2998 97.2924 84.5215 97.9645C83.7432 98.6367 83.3541 99.4504 83.3541 100.37C83.3541 101.149 83.6371 101.785 84.2385 102.281C84.8399 102.776 85.6182 103.024 86.5734 103.024C87.847 103.024 88.8022 102.599 89.4036 101.785C90.005 100.972 90.3234 99.698 90.3234 97.9645V95.0636V95.099ZM72.5993 104.969C72.9531 104.757 73.1654 104.191 73.3069 103.307C73.4484 102.422 73.5192 100.83 73.5192 98.566C73.5192 97.9292 73.5192 96.7617 73.5192 95.0282C73.5192 93.2947 73.5192 91.8796 73.5192 90.7829V84.4504C73.5192 81.5141 73.4484 79.5683 73.3423 78.5778C73.2361 77.5872 72.9885 77.0212 72.6701 76.8089L76.7031 76.1367C76.6324 76.915 76.5616 78.8254 76.5616 81.8325C76.5616 84.8396 76.5262 89.7216 76.5262 96.4433V99.698C76.5262 101.573 76.597 102.847 76.7031 103.554C76.8093 104.262 77.0569 104.722 77.3753 104.969H72.6701H72.5993ZM65.8423 105.217C65.6654 104.792 65.5593 104.297 65.4885 103.766C65.3824 103.236 65.347 102.634 65.3116 102.033C64.781 103.13 64.0734 104.014 63.1536 104.58C62.2692 105.182 61.2432 105.465 60.0758 105.465C58.6607 105.465 57.4225 105.04 56.4319 104.156C55.406 103.307 54.9107 102.281 54.9107 101.149C54.9107 100.087 55.3352 99.132 56.1843 98.3537C57.0333 97.5754 58.8729 96.5495 61.7031 95.3112C63.4012 94.5683 64.4272 93.9315 64.8163 93.4716C65.1701 93.0117 65.3824 92.2334 65.3824 91.1721C65.3824 89.8631 65.0993 88.9079 64.5333 88.3419C63.9673 87.7405 63.0828 87.4575 61.9154 87.4575C61.3493 87.4575 60.8894 87.5636 60.4295 87.7405C60.005 87.9174 59.6512 88.2004 59.4036 88.5542C59.2975 88.7311 59.156 89.0141 58.9791 89.4386C58.4838 90.6414 57.8116 91.2782 56.9979 91.2782C56.538 91.2782 56.1843 91.1367 55.9012 90.8537C55.6182 90.5707 55.4767 90.2169 55.4767 89.757C55.4767 88.6957 56.1843 87.8466 57.5993 87.1745C59.0144 86.5023 60.9248 86.1485 63.2951 86.1485C65.0993 86.1485 66.4083 86.4669 67.1866 87.0683C67.9649 87.6697 68.3894 88.6957 68.3894 90.1108C68.3894 90.323 68.3894 91.349 68.2833 93.1178C68.2126 94.8867 68.1772 96.5494 68.1772 98.1414C68.1772 100.158 68.2833 101.715 68.531 102.882C68.7786 104.014 69.1324 104.757 69.5923 105.005L65.913 105.252L65.8423 105.217ZM65.2055 95.099C62.1277 96.3372 60.1819 97.2924 59.4036 97.9645C58.6253 98.6367 58.2361 99.4504 58.2361 100.37C58.2361 101.149 58.5192 101.785 59.1206 102.281C59.722 102.776 60.5003 103.024 61.4555 103.024C62.7291 103.024 63.6843 102.599 64.2857 101.785C64.8871 100.972 65.2055 99.698 65.2055 97.9645V95.0636V95.099ZM46.314 91.7381H51.8328C51.4791 92.2334 51.2314 92.9763 51.0899 93.9669C50.9484 94.9575 50.8777 96.7263 50.8777 99.2381C50.8777 100.901 50.8777 102.104 50.9838 102.882C51.0545 103.66 51.1607 104.297 51.3376 104.757C49.8871 104.828 48.1182 104.969 46.031 105.182C43.9437 105.394 42.564 105.465 41.9272 105.465C37.3989 105.465 33.9673 104.332 31.5616 102.104C29.156 99.8749 27.9531 96.6556 27.9531 92.4811C27.9531 88.0589 29.4036 84.5565 32.3753 81.974C35.3116 79.3914 39.3446 78.1178 44.439 78.1178C45.3588 78.1178 46.3494 78.1532 47.446 78.224C48.5427 78.2947 49.6748 78.4362 50.8777 78.5778V83.3891C49.8871 82.257 48.7196 81.4079 47.3753 80.8419C46.031 80.2759 44.5451 79.9929 42.9177 79.9929C39.663 79.9929 37.0451 81.0542 35.1701 83.1768C33.2597 85.2995 32.3045 88.2004 32.3045 91.8443C32.3045 95.4881 33.3305 98.3183 35.4177 100.37C37.4696 102.422 40.3706 103.448 44.0144 103.448C44.6159 103.448 45.1465 103.448 45.6418 103.377C46.1371 103.307 46.597 103.236 47.0569 103.13C47.163 102.422 47.2338 101.679 47.3045 100.901C47.3753 100.123 47.3753 99.2381 47.3753 98.2829C47.3753 96.4079 47.3045 94.9575 47.1277 93.9315C46.9861 92.9056 46.7031 92.1627 46.3493 91.7381H46.314Z" fill="#004071"/>
</svg>
