<svg width="14" height="18" viewBox="0 0 14 18" fill="none" xmlns="http://www.w3.org/2000/svg">
<path d="M6.96429 1.25C7.65299 1.25 8.32623 1.43328 8.89886 1.77666C9.4715 2.12004 9.91781 2.60809 10.1814 3.17911C10.4449 3.75013 10.5139 4.37847 10.3795 4.98466C10.2452 5.59085 9.91352 6.14767 9.42653 6.58471C8.93955 7.02175 8.31909 7.31938 7.64362 7.43995C6.96815 7.56053 6.26801 7.49865 5.63173 7.26212C4.99545 7.0256 4.45161 6.62506 4.06899 6.11116C3.68637 5.59725 3.48214 4.99307 3.48214 4.375C3.48214 3.5462 3.84901 2.75134 4.50204 2.16529C5.15507 1.57924 6.04076 1.25 6.96429 1.25ZM6.96429 0C6.0001 0 5.05757 0.256589 4.25588 0.73732C3.45419 1.21805 2.82935 1.90133 2.46037 2.70076C2.0914 3.50019 1.99485 4.37985 2.18296 5.22852C2.37106 6.07719 2.83536 6.85674 3.51714 7.46859C4.19892 8.08045 5.06756 8.49713 6.01322 8.66594C6.95888 8.83475 7.93908 8.74811 8.82987 8.41697C9.72066 8.08584 10.482 7.52508 11.0177 6.80562C11.5534 6.08615 11.8393 5.24029 11.8393 4.375C11.8393 3.21468 11.3257 2.10188 10.4114 1.28141C9.49719 0.460936 8.25722 0 6.96429 0ZM13.9286 17.5H12.5357V14.375C12.5357 13.5462 12.1688 12.7513 11.5158 12.1653C10.8628 11.5792 9.97709 11.25 9.05357 11.25H4.875C3.95148 11.25 3.06578 11.5792 2.41275 12.1653C1.75972 12.7513 1.39286 13.5462 1.39286 14.375V17.5H0V14.375C0 13.2147 0.513614 12.1019 1.42785 11.2814C2.34209 10.4609 3.58207 10 4.875 10H9.05357C10.3465 10 11.5865 10.4609 12.5007 11.2814C13.415 12.1019 13.9286 13.2147 13.9286 14.375V17.5Z" fill="#2F80ED"/>
</svg>
