<svg width="19" height="16" viewBox="0 0 19 16" fill="none" xmlns="http://www.w3.org/2000/svg">
<path d="M18.0798 15.192L15.186 12.5131C15.9594 11.5915 16.3243 10.4316 16.2064 9.2696C16.0885 8.1076 15.4967 7.0309 14.5516 6.25872C13.6064 5.48655 12.3789 5.07698 11.119 5.1134C9.85917 5.14983 8.66166 5.62952 7.77037 6.4548C6.87907 7.28007 6.36101 8.38887 6.32166 9.55541C6.28232 10.722 6.72466 11.8585 7.55861 12.7337C8.39255 13.6088 9.5554 14.1568 10.8104 14.2659C12.0653 14.3751 13.318 14.0372 14.3134 13.3211L17.2072 16L18.0798 15.192ZM11.2912 13.1429C10.5589 13.1429 9.84297 12.9418 9.23404 12.565C8.6251 12.1883 8.1505 11.6528 7.87024 11.0263C7.58998 10.3999 7.51665 9.71048 7.65952 9.04541C7.8024 8.38033 8.15506 7.76941 8.67292 7.28992C9.19077 6.81043 9.85056 6.48389 10.5688 6.35159C11.2871 6.2193 12.0316 6.2872 12.7083 6.5467C13.3849 6.8062 13.9632 7.24565 14.37 7.80947C14.7769 8.3733 14.9941 9.03618 14.9941 9.71429C14.9929 10.6233 14.6025 11.4947 13.9083 12.1375C13.2141 12.7802 12.2729 13.1418 11.2912 13.1429ZM0.799805 5.71429H5.73695V6.85714H0.799805V5.71429ZM0.799805 0H10.6741V1.14286H0.799805V0ZM0.799805 2.85714H10.6741V4H0.799805V2.85714Z" fill="black" fill-opacity="0.35"/>
</svg>
