<svg width="80" height="82" viewBox="0 0 80 82" fill="none" xmlns="http://www.w3.org/2000/svg">
<path d="M40 5.125C49.2826 5.125 58.185 8.90468 64.7487 15.6325C71.3125 22.3604 75 31.4854 75 41C75 50.5146 71.3125 59.6396 64.7487 66.3675C58.185 73.0953 49.2826 76.875 40 76.875C30.7174 76.875 21.815 73.0953 15.2513 66.3675C8.68749 59.6396 5 50.5146 5 41C5 31.4854 8.68749 22.3604 15.2513 15.6325C21.815 8.90468 30.7174 5.125 40 5.125ZM35.64 48.0776L27.865 40.1031C27.5863 39.8174 27.2554 39.5908 26.8912 39.4362C26.527 39.2816 26.1367 39.202 25.7425 39.202C25.3483 39.202 24.958 39.2816 24.5938 39.4362C24.2296 39.5908 23.8987 39.8174 23.62 40.1031C23.0571 40.6801 22.7408 41.4627 22.7408 42.2787C22.7408 43.0947 23.0571 43.8773 23.62 44.4543L33.52 54.6018C33.7979 54.8889 34.1286 55.1168 34.4929 55.2723C34.8572 55.4278 35.2479 55.5079 35.6425 55.5079C36.0371 55.5079 36.4278 55.4278 36.7921 55.2723C37.1564 55.1168 37.4871 54.8889 37.765 54.6018L58.265 33.5841C58.5475 33.2996 58.7722 32.9606 58.9261 32.5866C59.0801 32.2126 59.1604 31.8111 59.1622 31.4052C59.164 30.9993 59.0875 30.597 58.9369 30.2216C58.7863 29.8462 58.5647 29.505 58.2848 29.2178C58.005 28.9306 57.6724 28.7031 57.3063 28.5483C56.9402 28.3935 56.5478 28.3145 56.1518 28.3159C55.7558 28.3173 55.364 28.3991 54.999 28.5565C54.6339 28.7139 54.3029 28.9438 54.025 29.233L35.64 48.0776Z" fill="#3EAF3F"/>
</svg>
