<svg width="29" height="28" viewBox="0 0 29 28" fill="none" xmlns="http://www.w3.org/2000/svg">
<path d="M27.7426 21H24.1629V17.5H22.373V21H18.7934V22.75H22.373V26.25H24.1629V22.75H27.7426V21Z" fill="#2F80ED"/>
<path d="M22.373 4.375H19.6883V3.5C19.6869 3.0363 19.4978 2.59198 19.1625 2.26409C18.8271 1.9362 18.3727 1.75138 17.8984 1.75H10.7391C10.2648 1.75138 9.81037 1.9362 9.47502 2.26409C9.13966 2.59198 8.95064 3.0363 8.94922 3.5V4.375H6.26445C5.79019 4.37638 5.33576 4.5612 5.00041 4.88909C4.66505 5.21698 4.47603 5.6613 4.47461 6.125V24.5C4.47603 24.9637 4.66505 25.408 5.00041 25.7359C5.33576 26.0638 5.79019 26.2486 6.26445 26.25H15.2137V24.5H6.26445V6.125H8.94922V8.75H19.6883V6.125H22.373V14H24.1629V6.125C24.1615 5.6613 23.9724 5.21698 23.6371 4.88909C23.3017 4.5612 22.8473 4.37638 22.373 4.375ZM17.8984 7H10.7391V3.5H17.8984V7Z" fill="#2F80ED"/>
</svg>
