<svg id="Group_3" data-name="Group 3" xmlns="http://www.w3.org/2000/svg" xmlns:xlink="http://www.w3.org/1999/xlink" width="400.472" height="321.545" viewBox="0 0 400.472 321.545">
  <defs>
    <clipPath id="clip-path">
      <rect id="Rectangle_37" data-name="Rectangle 37" width="400.472" height="321.545" fill="none"/>
    </clipPath>
  </defs>
  <g id="Group_2" data-name="Group 2">
    <g id="Group_1" data-name="Group 1" clip-path="url(#clip-path)">
      <path id="Path_1" data-name="Path 1" d="M267.895,242.9a5.853,5.853,0,0,0-3.531-3.979,3.637,3.637,0,0,0-4.529,2.052c-1.615-1.349-4.09-.278-5.387,1.378-2.1,2.678-.477,7.064-.127,7.349a2.791,2.791,0,0,0,1.4.253l15.7-.087a19.681,19.681,0,0,0,4.211-.74c2.675-1.067,4.495-5.671,2.773-7.98-1.174-1.575-3.49-1.908-5.361-1.311a15.065,15.065,0,0,0-5.158,3.065" fill="#6cdd6c"/>
      <path id="Path_2" data-name="Path 2" d="M255.5,250.48a2.615,2.615,0,0,1-1.507-.376c-.616-.5-2.18-5.23.046-8.07a5.666,5.666,0,0,1,3.668-2.167,3.258,3.258,0,0,1,1.9.336,3.7,3.7,0,0,1,1.55-1.467,4.474,4.474,0,0,1,3.367-.306,6.088,6.088,0,0,1,3.606,3.6,15.163,15.163,0,0,1,4.765-2.681c1.876-.6,4.533-.386,5.935,1.494a5.045,5.045,0,0,1,.512,4.394,6.641,6.641,0,0,1-3.508,4.378,19.815,19.815,0,0,1-4.367.776l-15.739.088c-.052,0-.13.006-.227.006m2.609-9.6a2.712,2.712,0,0,0-.294.016,4.667,4.667,0,0,0-2.96,1.776c-1.842,2.35-.466,6.273-.165,6.668a3.013,3.013,0,0,0,1.007.1l15.729-.088a19.328,19.328,0,0,0,4.022-.7,5.657,5.657,0,0,0,2.894-3.7,4.035,4.035,0,0,0-.344-3.492c-1.1-1.474-3.253-1.617-4.787-1.126a14.567,14.567,0,0,0-4.974,2.959.516.516,0,0,1-.483.111.523.523,0,0,1-.356-.348,5.283,5.283,0,0,0-3.193-3.637,3.414,3.414,0,0,0-2.571.24,2.536,2.536,0,0,0-1.3,1.472.518.518,0,0,1-.827.244,2.115,2.115,0,0,0-1.394-.491" fill="#50aa50"/>
      <path id="Path_3" data-name="Path 3" d="M251.379,242.307a4.915,4.915,0,0,0-.536,2.8c.054.492.832.5.778,0a4.172,4.172,0,0,1,.43-2.411c.228-.445-.443-.839-.672-.393" fill="#50aa50"/>
      <path id="Path_4" data-name="Path 4" d="M249.11,242.931a5.389,5.389,0,0,0-.067,2.649c.107.489.857.282.75-.206a4.54,4.54,0,0,1,.067-2.236.389.389,0,0,0-.75-.207" fill="#50aa50"/>
      <path id="Path_5" data-name="Path 5" d="M253.473,241.353a.389.389,0,0,0,0-.778.389.389,0,0,0,0,.778" fill="#50aa50"/>
      <path id="Path_6" data-name="Path 6" d="M255.677,245.112v.691a.389.389,0,0,0,.778,0v-.691a.389.389,0,0,0-.778,0" fill="#50aa50"/>
      <path id="Path_7" data-name="Path 7" d="M268.813,246.322v.346a.389.389,0,0,0,.778,0v-.346a.389.389,0,0,0-.778,0" fill="#50aa50"/>
      <path id="Path_8" data-name="Path 8" d="M267.371,245.387l.173.173a.389.389,0,0,0,.55-.55l-.173-.173a.389.389,0,0,0-.55.55" fill="#50aa50"/>
      <path id="Path_9" data-name="Path 9" d="M46.354,228.242H20.024a1.037,1.037,0,0,1,0-2.074h26.33a1.037,1.037,0,0,1,0,2.074" fill="#405b91"/>
      <path id="Path_10" data-name="Path 10" d="M278.2,136.929h-.752a1.128,1.128,0,1,0-2.256,0h-.752a1.88,1.88,0,0,1,3.76,0" fill="#fff"/>
      <path id="Path_11" data-name="Path 11" d="M280.886,93.144h-.752a1.128,1.128,0,0,0-2.256,0h-.752a1.88,1.88,0,1,1,3.76,0" fill="#fff"/>
      <path id="Path_12" data-name="Path 12" d="M187.279,245.3H151.493l.608-1.44c2.346-5.566,2.589-10.332,2.231-15.777l-.072-1.1,30.171-.092.008,1.032a70.467,70.467,0,0,0,2.411,16.028Zm-32.7-2.074h29.9a78.809,78.809,0,0,1-2.089-14.257l-25.926.08a33.709,33.709,0,0,1-1.885,14.177" fill="#415b91"/>
      <path id="Path_13" data-name="Path 13" d="M141.205,228.946c-27.168,0-49.176-.148-50.142-.493-2.326-.829-5.365-4.052-5.406-6.338-.088-4.95-.3-11.691-.547-19.5-.745-23.537-1.763-55.773-.442-73.611a6.19,6.19,0,0,1,6.135-5.761h.1l156.632.233a6.175,6.175,0,0,1,6.046,6.086c.12,5.211.289,10.535.46,15.933.718,22.6,1.458,45.966-1.044,68.064-.1.871-.142,1.833-.187,2.83-.211,4.636-.474,10.407-6.449,11.585-2.922.577-60.889.971-105.159.971M90.816,124.911a4.524,4.524,0,0,0-4.485,4.217c-1.315,17.751-.3,49.936.444,73.436.248,7.812.461,14.56.549,19.522.026,1.442,2.437,4.132,4.3,4.8,3.334.681,150.59.177,154.418-.542,4.692-.927,4.9-5.553,5.106-10.028.048-1.035.094-2.035.2-2.942,2.49-21.976,1.749-45.284,1.035-67.823-.171-5.4-.341-10.73-.461-15.946a4.512,4.512,0,0,0-4.4-4.458l-156.624-.233Z" fill="#415b91"/>
      <path id="Path_14" data-name="Path 14" d="M243.156,128.868,95.58,128.674a4.833,4.833,0,0,0-5.082,4.158c-1.653,19.752.6,60.964.934,77.551.033,1.616,2.672,4.04,4.573,4.641,2.237.706,142.48.172,145.907-.426,6.156-1.075,5.108-7.378,5.624-11.413,2.921-22.812,1.127-47.61.546-69.922a4.78,4.78,0,0,0-4.926-4.4" fill="#b6d0fb" fill-rule="evenodd"/>
      <path id="Path_15" data-name="Path 15" d="M200.081,250.974h-61.4a3.814,3.814,0,0,1,0-7.625h61.4a3.814,3.814,0,0,1,0,7.625m-61.4-5.958a2.148,2.148,0,0,0,0,4.291h61.4a2.148,2.148,0,0,0,0-4.291Z" fill="#415b91"/>
      <path id="Path_16" data-name="Path 16" d="M95.914,220.993h0" fill="#415b91" fill-rule="evenodd"/>
      <path id="Path_17" data-name="Path 17" d="M95.914,223.136c2.758,0,2.762-4.286,0-4.286s-2.762,4.286,0,4.286" fill="#415b91"/>
      <path id="Path_18" data-name="Path 18" d="M104.554,220.993h0" fill="#415b91" fill-rule="evenodd"/>
      <path id="Path_19" data-name="Path 19" d="M104.554,223.136c2.758,0,2.762-4.286,0-4.286s-2.762,4.286,0,4.286" fill="#415b91"/>
      <path id="Path_20" data-name="Path 20" d="M113.194,220.993h0" fill="#415b91" fill-rule="evenodd"/>
      <path id="Path_21" data-name="Path 21" d="M113.194,223.136c2.758,0,2.762-4.286,0-4.286s-2.762,4.286,0,4.286" fill="#415b91"/>
      <path id="Path_22" data-name="Path 22" d="M169.379,126.589h0" fill="#415b91" fill-rule="evenodd"/>
      <path id="Path_23" data-name="Path 23" d="M169.379,127.594a1.006,1.006,0,0,0,0-2.01,1.006,1.006,0,0,0,0,2.01" fill="#415b91"/>
      <path id="Path_24" data-name="Path 24" d="M342.553,246.9H321.395l8.138-26.728h4.882Z" fill="#b6d0fb"/>
      <rect id="Rectangle_1" data-name="Rectangle 1" width="24.655" height="3.054" transform="translate(319.646 246.901)" fill="#b6d0fb"/>
      <path id="Path_25" data-name="Path 25" d="M323.429,240.219l-2.035,6.682h21.159l-2.035-6.682Z" fill="#415b91"/>
      <path id="Path_26" data-name="Path 26" d="M325.463,233.537h13.021l-2.035-6.682H327.5Z" fill="#415b91"/>
      <path id="Path_27" data-name="Path 27" d="M351.2,249.783h4.7V231.6H380v18.179h4.7V231.6h4.972V217.089H385.7v-1.341H378.86v1.341H357.509v-1.341h-6.841v1.341h-4.353V231.6h4.89ZM388.151,218.6v.061l-2.894,11.422h-5.164L383,218.6Zm-13.468,11.483h-5.165l2.909-11.483h5.165Zm-10.575,0h-5.165l2.91-11.483h5.164ZM351.278,218.6h5.164l-2.909,11.483h-5.164Z" fill="#b6d0fb"/>
      <path id="Path_28" data-name="Path 28" d="M120.282,72.073l1.406-1.407a.727.727,0,0,0,0-1.033l-1.226-1.223a1.035,1.035,0,0,1-.163-1.156l1-2.424a1.037,1.037,0,0,1,.937-.7h1.734a.73.73,0,0,0,.73-.726v-2a.729.729,0,0,0-.73-.728h-1.734a1.038,1.038,0,0,1-.937-.7l-1-2.423a1.04,1.04,0,0,1,.163-1.159l1.226-1.223a.723.723,0,0,0,0-1.029l-1.406-1.412a.73.73,0,0,0-1.032,0l-1.226,1.225a1.039,1.039,0,0,1-1.155.168l-2.427-1a1.039,1.039,0,0,1-.7-.938V50.452a.733.733,0,0,0-.729-.731h-1.99a.734.734,0,0,0-.731.731v1.734a1.037,1.037,0,0,1-.7.938l-2.426,1a1.038,1.038,0,0,1-1.155-.168l-1.228-1.224a.722.722,0,0,0-1.027,0l-1.412,1.411a.726.726,0,0,0,0,1.029l1.225,1.223a1.039,1.039,0,0,1,.167,1.159l-1,2.423a1.039,1.039,0,0,1-.937.7h-1.736a.73.73,0,0,0-.729.728v2a.731.731,0,0,0,.729.726H101.8a1.038,1.038,0,0,1,.937.7l1,2.424a1.034,1.034,0,0,1-.167,1.156l-1.225,1.223a.731.731,0,0,0,0,1.033l1.412,1.407a.72.72,0,0,0,1.027,0l1.228-1.224a1.033,1.033,0,0,1,1.157-.164l2.424,1a1.033,1.033,0,0,1,.7.936v1.737a.732.732,0,0,0,.731.728h1.99a.731.731,0,0,0,.729-.728V72.619a1.034,1.034,0,0,1,.7-.936l2.427-1a1.031,1.031,0,0,1,1.155.164l1.226,1.224a.726.726,0,0,0,1.032,0m-8.264-3.852a5.819,5.819,0,1,1,5.819-5.818,5.821,5.821,0,0,1-5.819,5.818" fill="#b6d0fb"/>
      <path id="Path_29" data-name="Path 29" d="M133.737,77.573l-.355-1.182a.456.456,0,0,0-.565-.3l-1.025.312a.641.641,0,0,1-.683-.251L130.076,74.9a.646.646,0,0,1-.106-.717l.506-.946a.455.455,0,0,0-.181-.614l-1.089-.582a.454.454,0,0,0-.612.185l-.509.947a.644.644,0,0,1-.655.306l-1.618-.163a.636.636,0,0,1-.582-.429l-.312-1.028a.449.449,0,0,0-.562-.3l-1.182.354a.454.454,0,0,0-.3.566l.313,1.026a.637.637,0,0,1-.253.681l-1.254,1.035a.646.646,0,0,1-.716.1l-.947-.508a.45.45,0,0,0-.61.186l-.585,1.085A.455.455,0,0,0,119,76.7l.948.511a.635.635,0,0,1,.307.653l-.161,1.617a.637.637,0,0,1-.431.582l-1.028.314a.45.45,0,0,0-.3.563l.357,1.18a.45.45,0,0,0,.565.3l1.028-.31a.646.646,0,0,1,.678.25L122,83.615a.648.648,0,0,1,.108.717l-.509.946a.459.459,0,0,0,.187.614l1.086.58a.453.453,0,0,0,.612-.184l.51-.947a.641.641,0,0,1,.655-.309l1.614.165a.643.643,0,0,1,.586.431l.309,1.026a.453.453,0,0,0,.565.3L128.9,86.6a.458.458,0,0,0,.3-.562l-.312-1.027a.639.639,0,0,1,.246-.681L130.4,83.3a.65.65,0,0,1,.718-.109l.945.508a.45.45,0,0,0,.614-.184l.583-1.088a.453.453,0,0,0-.187-.612l-.947-.509a.637.637,0,0,1-.306-.652l.164-1.621a.645.645,0,0,1,.429-.583l1.029-.31a.452.452,0,0,0,.3-.563m-4.521,3.384a3.606,3.606,0,1,1-1.474-4.881,3.6,3.6,0,0,1,1.474,4.881" fill="#b6d0fb"/>
      <path id="Path_30" data-name="Path 30" d="M192.625,100.352h-32.6a1.037,1.037,0,0,1,0-2.074h32.6a1.037,1.037,0,1,1,0,2.074" fill="#405b91"/>
      <path id="Path_31" data-name="Path 31" d="M126.257,115.162H73.6a1.037,1.037,0,1,1,0-2.074h52.658a1.037,1.037,0,0,1,0,2.074" fill="#405b91"/>
      <path id="Path_32" data-name="Path 32" d="M378.734,143.2H326.077a1.037,1.037,0,0,1,0-2.074h52.657a1.037,1.037,0,0,1,0,2.074" fill="#405b91"/>
      <path id="Path_33" data-name="Path 33" d="M399.435,252.011H1.037a1.037,1.037,0,0,1,0-2.074h398.4a1.037,1.037,0,0,1,0,2.074" fill="#405b91"/>
      <path id="Path_34" data-name="Path 34" d="M253.3,87.327a8.366,8.366,0,0,0-7.214,12.6l.137.232-8.468,8.468a1.48,1.48,0,0,0-.417.963,1.838,1.838,0,0,0,.639,1.286,2.024,2.024,0,0,0,1.416.685,1.72,1.72,0,0,0,1-.339l8.446-8.451.234.138a8.365,8.365,0,1,0,4.23-15.58m0,14.245a5.881,5.881,0,1,1,5.882-5.88,5.888,5.888,0,0,1-5.882,5.88" fill="#b6d0fb"/>
      <rect id="Rectangle_2" data-name="Rectangle 2" width="6.057" height="1.55" transform="translate(250.198 95.365)" fill="#b6d0fb"/>
      <path id="Path_35" data-name="Path 35" d="M97.985,250.09a1.037,1.037,0,0,1-1.037-1.037V169.18a1.037,1.037,0,0,1,2.074,0v79.873a1.037,1.037,0,0,1-1.037,1.037" fill="#405b91"/>
      <path id="Path_36" data-name="Path 36" d="M116.546,250.09a1.037,1.037,0,0,1-1.037-1.037V169.18a1.037,1.037,0,0,1,2.074,0v79.873a1.037,1.037,0,0,1-1.037,1.037" fill="#405b91"/>
      <path id="Path_37" data-name="Path 37" d="M116.546,175.675H97.984a1.037,1.037,0,0,1,0-2.074h18.562a1.037,1.037,0,1,1,0,2.074" fill="#405b91"/>
      <path id="Path_38" data-name="Path 38" d="M116.546,184.8H97.984a1.037,1.037,0,0,1,0-2.074h18.562a1.037,1.037,0,1,1,0,2.074" fill="#405b91"/>
      <path id="Path_39" data-name="Path 39" d="M116.546,193.926H97.984a1.037,1.037,0,1,1,0-2.074h18.562a1.037,1.037,0,1,1,0,2.074" fill="#405b91"/>
      <path id="Path_40" data-name="Path 40" d="M116.546,203.051H97.984a1.037,1.037,0,1,1,0-2.074h18.562a1.037,1.037,0,1,1,0,2.074" fill="#405b91"/>
      <path id="Path_41" data-name="Path 41" d="M116.546,212.176H97.984a1.037,1.037,0,1,1,0-2.074h18.562a1.037,1.037,0,1,1,0,2.074" fill="#405b91"/>
      <path id="Path_42" data-name="Path 42" d="M116.546,221.3H97.984a1.037,1.037,0,1,1,0-2.074h18.562a1.037,1.037,0,1,1,0,2.074" fill="#405b91"/>
      <path id="Path_43" data-name="Path 43" d="M116.546,230.426H97.984a1.037,1.037,0,1,1,0-2.074h18.562a1.037,1.037,0,1,1,0,2.074" fill="#405b91"/>
      <path id="Path_44" data-name="Path 44" d="M116.546,239.55H97.984a1.037,1.037,0,0,1,0-2.074h18.562a1.037,1.037,0,1,1,0,2.074" fill="#405b91"/>
      <path id="Path_45" data-name="Path 45" d="M72.705,173.054a1.037,1.037,0,0,1-1.037-1.037v-4.038a1.037,1.037,0,1,1,2.074,0v4.038a1.037,1.037,0,0,1-1.037,1.037" fill="#405b91"/>
      <path id="Path_46" data-name="Path 46" d="M74.724,171.035H70.687a1.037,1.037,0,1,1,0-2.074h4.037a1.037,1.037,0,1,1,0,2.074" fill="#405b91"/>
      <path id="Path_47" data-name="Path 47" d="M165.972,28.618a1.037,1.037,0,0,1-1.037-1.037V23.543a1.037,1.037,0,0,1,2.074,0v4.038a1.037,1.037,0,0,1-1.037,1.037" fill="#405b91"/>
      <path id="Path_48" data-name="Path 48" d="M167.991,26.6h-4.037a1.037,1.037,0,1,1,0-2.074h4.037a1.037,1.037,0,1,1,0,2.074" fill="#405b91"/>
      <path id="Path_49" data-name="Path 49" d="M198.666,237.683a1.043,1.043,0,0,1-.285-.04l-3.883-1.108a1.037,1.037,0,0,1,.57-2l3.882,1.108a1.037,1.037,0,0,1-.284,2.035" fill="#405b91"/>
      <path id="Path_50" data-name="Path 50" d="M196.17,239.071a1.038,1.038,0,0,1-1-1.322l1.109-3.883a1.037,1.037,0,1,1,1.995.57l-1.109,3.882a1.039,1.039,0,0,1-1,.753" fill="#405b91"/>
      <path id="Path_51" data-name="Path 51" d="M178.266,115.717a1.043,1.043,0,0,1-.285-.04l-3.882-1.11a1.037,1.037,0,1,1,.569-1.994l3.883,1.109a1.038,1.038,0,0,1-.285,2.035" fill="#405b91"/>
      <path id="Path_52" data-name="Path 52" d="M175.771,117.1a1.038,1.038,0,0,1-1-1.322l1.109-3.883a1.037,1.037,0,0,1,1.994.57l-1.109,3.882a1.037,1.037,0,0,1-1,.753" fill="#405b91"/>
      <path id="Path_53" data-name="Path 53" d="M189.953,77.5a14.407,14.407,0,1,1-14.407-14.407A14.407,14.407,0,0,1,189.953,77.5" fill="#b6d0fb"/>
      <path id="Path_54" data-name="Path 54" d="M186.339,77.5A10.793,10.793,0,1,1,175.547,66.7,10.792,10.792,0,0,1,186.339,77.5" fill="#fff"/>
      <path id="Path_55" data-name="Path 55" d="M175.546,88.706a11.21,11.21,0,1,1,11.21-11.21,11.223,11.223,0,0,1-11.21,11.21m0-21.585A10.375,10.375,0,1,0,185.921,77.5a10.386,10.386,0,0,0-10.375-10.375" fill="#405b91"/>
      <path id="Path_56" data-name="Path 56" d="M175.546,77.914a.418.418,0,0,1-.418-.417V72a.418.418,0,1,1,.836,0v5.5a.418.418,0,0,1-.418.417" fill="#405b91"/>
      <path id="Path_57" data-name="Path 57" d="M181.984,77.914h-6.438a.417.417,0,1,1,0-.835h6.438a.417.417,0,1,1,0,.835" fill="#405b91"/>
      <path id="Path_58" data-name="Path 58" d="M175.973,67.922a.427.427,0,1,1-.427-.426.427.427,0,0,1,.427.426" fill="#405b91"/>
      <path id="Path_59" data-name="Path 59" d="M182.617,71.028a.426.426,0,1,1,0-.6.427.427,0,0,1,0,.6" fill="#405b91"/>
      <path id="Path_60" data-name="Path 60" d="M185.12,77.923a.426.426,0,1,1,.426-.426.426.426,0,0,1-.426.426" fill="#405b91"/>
      <path id="Path_61" data-name="Path 61" d="M182.015,84.567a.426.426,0,1,1,.6,0,.427.427,0,0,1-.6,0" fill="#405b91"/>
      <path id="Path_62" data-name="Path 62" d="M175.12,87.07a.426.426,0,1,1,.426.426.426.426,0,0,1-.426-.426" fill="#405b91"/>
      <path id="Path_63" data-name="Path 63" d="M168.475,83.965a.426.426,0,1,1,0,.6.426.426,0,0,1,0-.6" fill="#405b91"/>
      <path id="Path_64" data-name="Path 64" d="M165.972,77.07a.426.426,0,1,1-.426.426.426.426,0,0,1,.426-.426" fill="#405b91"/>
      <path id="Path_65" data-name="Path 65" d="M169.078,70.425a.426.426,0,1,1-.6,0,.427.427,0,0,1,.6,0" fill="#405b91"/>
      <path id="Path_66" data-name="Path 66" d="M196.621,72h-6.049a.417.417,0,1,1,0-.835h6.049a.417.417,0,0,1,0,.835" fill="#405b91"/>
      <path id="Path_67" data-name="Path 67" d="M196.621,83.833h-6.049a.417.417,0,1,1,0-.835h6.049a.417.417,0,0,1,0,.835" fill="#405b91"/>
      <path id="Path_68" data-name="Path 68" d="M204.141,77.916h-11.3a.417.417,0,1,1,0-.835h11.3a.417.417,0,1,1,0,.835" fill="#405b91"/>
      <rect id="Rectangle_3" data-name="Rectangle 3" width="6.682" height="6.682" transform="translate(217.175 233.537)" fill="#fff"/>
      <path id="Path_69" data-name="Path 69" d="M224.375,240.738h-7.719v-7.719h7.719Zm-6.682-1.037h5.645v-5.645h-5.645Z" fill="#415b91"/>
      <path id="Path_70" data-name="Path 70" d="M232.314,235.006h-6.049a.417.417,0,1,1,0-.835h6.049a.417.417,0,0,1,0,.835" fill="#405b91"/>
      <path id="Path_71" data-name="Path 71" d="M234.587,239.585h-8.175c-.312,0-.565-.187-.565-.418s.253-.417.565-.417h8.175c.312,0,.564.187.564.417s-.252.418-.564.418" fill="#405b91"/>
      <path id="Path_72" data-name="Path 72" d="M237.564,237.167h-11.3a.418.418,0,1,1,0-.835h11.3a.418.418,0,0,1,0,.835" fill="#405b91"/>
      <rect id="Rectangle_4" data-name="Rectangle 4" width="6.682" height="6.682" transform="translate(70.451 135.482)" fill="#fff"/>
      <path id="Path_73" data-name="Path 73" d="M77.651,142.682H69.932v-7.719h7.719Zm-6.682-1.037h5.645V136H70.969Z" fill="#415b91"/>
      <path id="Path_74" data-name="Path 74" d="M61.994,136.951h6.049a.418.418,0,1,0,0-.835H61.994a.418.418,0,1,0,0,.835" fill="#405b91"/>
      <path id="Path_75" data-name="Path 75" d="M59.721,141.53H67.9c.312,0,.565-.187.565-.417s-.253-.418-.565-.418H59.721c-.312,0-.564.187-.564.418s.252.417.564.417" fill="#405b91"/>
      <path id="Path_76" data-name="Path 76" d="M56.744,139.112h11.3a.418.418,0,1,0,0-.835h-11.3a.418.418,0,1,0,0,.835" fill="#405b91"/>
      <rect id="Rectangle_5" data-name="Rectangle 5" width="2.074" height="89.193" transform="translate(274.242 160.59)" fill="#3f5b91"/>
      <path id="Path_77" data-name="Path 77" d="M275.508,171.382h-.456a6.171,6.171,0,0,1-6.153-6.153v-8.241a6.171,6.171,0,0,1,6.153-6.153h.456a6.171,6.171,0,0,1,6.153,6.153v8.241a6.171,6.171,0,0,1-6.153,6.153" fill="#b6d0fb"/>
      <path id="Path_78" data-name="Path 78" d="M283.632,165.415l2.189.352c.49.078.7-.671.207-.75l-2.189-.352c-.49-.079-.7.671-.207.75" fill="#3f5b91"/>
      <path id="Path_79" data-name="Path 79" d="M283.556,160.661a6.347,6.347,0,0,1,1.719-.059c.5.047.495-.731,0-.778a7.105,7.105,0,0,0-1.926.087c-.492.087-.283.837.207.75" fill="#3f5b91"/>
      <path id="Path_80" data-name="Path 80" d="M283.319,156.332l1.678-.666c.46-.182.26-.935-.206-.75l-1.679.666c-.46.182-.259.935.207.75" fill="#3f5b91"/>
      <path id="Path_81" data-name="Path 81" d="M264.248,166.138a8.873,8.873,0,0,0,1.678-.4c.471-.161.269-.913-.206-.75a8.9,8.9,0,0,1-1.679.4c-.494.068-.283.818.207.75" fill="#3f5b91"/>
      <path id="Path_82" data-name="Path 82" d="M263.238,160.609a8.555,8.555,0,0,1,2.11.323.389.389,0,0,0,.207-.75,9.464,9.464,0,0,0-2.317-.351.389.389,0,0,0,0,.778" fill="#3f5b91"/>
      <path id="Path_83" data-name="Path 83" d="M263.917,154.211l1.68.536c.478.152.682-.6.207-.75l-1.68-.536c-.478-.153-.683.6-.207.75" fill="#3f5b91"/>
      <path id="Path_84" data-name="Path 84" d="M270.44,250.992l1.383-11.921h6.741l1.555,11.749Z" fill="#405b91"/>
      <path id="Path_85" data-name="Path 85" d="M80.1,193.917c-.306-1.9-1.649-6.787-4.6-5.238-4.78,2.506.985,12.019-4.774,13.7-.308-3.793-1.123-6.405-2.835-6.25-3.532.321-2.593,8.535-2.651,10.384s-.149,3.729-.232,5.635c-4.155.745-3.334-10.093-5.861-11.591-3.929-2.331-4.764,2.863-4.656,5.262.184,4.083,1.282,8.967,5.116,11.135a10.4,10.4,0,0,0,5.23,1.376,54.5,54.5,0,0,0,.66,9.607.035.035,0,0,0,.067,0v-.008l2.327.126c0,.014,0,.028,0,.042a.8.8,0,0,0,1.592,0c.028-1.97,1.239-11.642,1.383-19.839a8.4,8.4,0,0,0,5.535-1.569c3.967-2.911,4.432-8.263,3.7-12.769" fill="#6cdd6c"/>
      <path id="Path_86" data-name="Path 86" d="M68.674,229.3a1.307,1.307,0,0,1-.671-.181,1.121,1.121,0,0,1-.5-.651l-1.716-.093-.625.021-.1-.392a53.17,53.17,0,0,1-.668-9.222,11.426,11.426,0,0,1-5-1.45c-4.09-2.314-5.161-7.531-5.34-11.5-.071-1.6.265-4.9,2.052-5.971a3.075,3.075,0,0,1,3.27.309c1.222.724,1.687,2.949,2.226,5.525.73,3.489,1.386,6,2.986,6.04l.038-.856c.067-1.482.133-2.949.177-4.387.009-.282-.006-.715-.025-1.247-.112-3.234-.319-9.254,3.077-9.562a1.858,1.858,0,0,1,1.417.454c.948.8,1.553,2.64,1.847,5.625,2.145-.957,2.034-3.444,1.907-6.292-.128-2.88-.26-5.858,2.273-7.186a2.446,2.446,0,0,1,2.332-.1c2.112,1.056,2.836,5.192,2.912,5.66.559,3.456.8,9.765-3.878,13.2a9.2,9.2,0,0,1-5.364,1.7c-.12,5.352-.669,11.247-1.036,15.187-.183,1.974-.328,3.532-.337,4.173a1.178,1.178,0,0,1-.607,1.041,1.337,1.337,0,0,1-.644.163m-2.8-1.8,2.474.134-.012.43c-.006.205.068.269.123.3a.451.451,0,0,0,.431,0,.294.294,0,0,0,.153-.28c.009-.675.149-2.172.342-4.243.376-4.044.945-10.154,1.041-15.6l.009-.5.5.075a8.045,8.045,0,0,0,5.208-1.489c4.3-3.152,4.055-9.086,3.528-12.342-.23-1.428-1.036-4.313-2.434-5.012a1.592,1.592,0,0,0-1.528.093c-2.036,1.068-1.922,3.642-1.8,6.366.133,3,.284,6.392-3.056,7.365l-.519.151-.044-.54c-.307-3.779-1.032-5.128-1.586-5.594a.991.991,0,0,0-.769-.251c-2.565.232-2.369,5.919-2.274,8.652.019.556.034,1.011.025,1.306-.045,1.441-.111,2.913-.178,4.4l-.071,1.6-.347.062c-2.844.509-3.644-3.319-4.351-6.7-.456-2.174-.926-4.421-1.813-4.948a2.28,2.28,0,0,0-2.366-.311c-1.317.789-1.695,3.593-1.624,5.174.169,3.747,1.154,8.657,4.893,10.771a9.962,9.962,0,0,0,4.975,1.32l.481-.04,0,.483a54.63,54.63,0,0,0,.594,9.17" fill="#50aa50"/>
      <path id="Path_87" data-name="Path 87" d="M75.531,249.973H58.648a1.778,1.778,0,0,1-1.79-1.465l-3.833-19.677,1.59-.311L58.449,248.2a.18.18,0,0,0,.2.154H75.531a.181.181,0,0,0,.2-.153l3.8-19.678,1.591.307-3.8,19.679a1.777,1.777,0,0,1-1.791,1.466" fill="#415b91"/>
      <path id="Path_88" data-name="Path 88" d="M53.2,222.5H81.219c.478,0,.869.528.869,1.175v4.26c0,.646-.391,1.174-.869,1.174H53.2c-.478,0-.868-.528-.868-1.174v-4.26c0-.647.39-1.175.868-1.175" fill="#b6d0fb"/>
      <path id="Path_89" data-name="Path 89" d="M81.219,229.55H53.2a1.489,1.489,0,0,1-1.309-1.616v-4.26a1.489,1.489,0,0,1,1.309-1.616H81.219a1.489,1.489,0,0,1,1.31,1.616v4.26a1.489,1.489,0,0,1-1.31,1.616M53.2,222.941c-.2,0-.427.314-.427.733v4.26c0,.419.226.733.427.733H81.219c.2,0,.428-.314.428-.733v-4.26c0-.419-.226-.733-.428-.733Z" fill="#405b91"/>
      <path id="Path_90" data-name="Path 90" d="M81.219,229.477H53.2a1.417,1.417,0,0,1-1.237-1.543v-4.26A1.418,1.418,0,0,1,53.2,222.13H81.219a1.418,1.418,0,0,1,1.238,1.544v4.26a1.417,1.417,0,0,1-1.238,1.543M53.2,222.868c-.236,0-.5.331-.5.806v4.26c0,.474.263.8.5.8H81.219c.237,0,.5-.331.5-.8v-4.26c0-.475-.263-.806-.5-.806Z" fill="#b6d0fb"/>
      <path id="Path_91" data-name="Path 91" d="M81.22,229.919H53.2a1.853,1.853,0,0,1-1.678-1.985v-4.259a1.854,1.854,0,0,1,1.678-1.986H81.22a1.854,1.854,0,0,1,1.679,1.986v4.259a1.853,1.853,0,0,1-1.679,1.985M53.247,223.31a.566.566,0,0,0-.108.365v4.259a.517.517,0,0,0,.124.379L81.22,228.3c-.033-.008.058-.138.058-.364v-4.259a.517.517,0,0,0-.125-.38Z" fill="#405b91"/>
      <path id="Path_92" data-name="Path 92" d="M56.252,205.77l1.382.176c.5.064.491-.715,0-.777l-1.382-.177c-.495-.063-.491.715,0,.778" fill="#50aa50"/>
      <path id="Path_93" data-name="Path 93" d="M58.286,199.654v.691a.389.389,0,0,0,.778,0v-.691a.389.389,0,0,0-.778,0" fill="#50aa50"/>
      <path id="Path_94" data-name="Path 94" d="M60.976,206.786l1.012-.563c.437-.244.046-.916-.393-.672q-.506.282-1.012.563c-.437.244-.045.916.393.672" fill="#50aa50"/>
      <path id="Path_95" data-name="Path 95" d="M56.981,215.735l1.218-.852c.408-.285.019-.959-.392-.672l-1.219.852c-.407.285-.019.96.393.672" fill="#50aa50"/>
      <path id="Path_96" data-name="Path 96" d="M54.066,209.047l.867.34c.466.182.668-.57.206-.75l-.866-.34c-.467-.183-.669.569-.207.75" fill="#50aa50"/>
      <path id="Path_97" data-name="Path 97" d="M59.712,212.658a.546.546,0,0,1,.409.239c.319.386.867-.167.55-.55a1.3,1.3,0,0,0-.959-.467c-.5-.036-.5.742,0,.778" fill="#50aa50"/>
      <path id="Path_98" data-name="Path 98" d="M61.418,216.318a2.643,2.643,0,0,0,.19,1.515c.194.46.865.064.671-.392a1.653,1.653,0,0,1-.111-.916c.076-.49-.673-.7-.75-.207" fill="#50aa50"/>
      <path id="Path_99" data-name="Path 99" d="M65.482,216.461l.688.184a.389.389,0,0,0,.207-.75l-.688-.184a.389.389,0,0,0-.207.75" fill="#50aa50"/>
      <path id="Path_100" data-name="Path 100" d="M67.965,208.814a1.292,1.292,0,0,0,.465,1.131c.38.321.933-.226.55-.55a.6.6,0,0,1-.237-.581c.045-.5-.733-.495-.778,0" fill="#50aa50"/>
      <path id="Path_101" data-name="Path 101" d="M66.978,203.257a1.2,1.2,0,0,0-.2.992c.087.492.836.283.75-.207a.423.423,0,0,1,.123-.392c.3-.4-.379-.793-.672-.393" fill="#50aa50"/>
      <path id="Path_102" data-name="Path 102" d="M71.249,205.53v.691a.389.389,0,0,0,.778,0v-.691a.389.389,0,0,0-.778,0" fill="#50aa50"/>
      <path id="Path_103" data-name="Path 103" d="M64.01,204.31q.259.173.518.346c.418.278.808-.4.393-.672q-.259-.172-.518-.346c-.418-.278-.808.4-.393.672" fill="#50aa50"/>
      <path id="Path_104" data-name="Path 104" d="M65.311,197.857a.967.967,0,0,1,.243.586c.038.5.816.5.777,0a1.868,1.868,0,0,0-.47-1.136c-.326-.381-.874.171-.55.55" fill="#50aa50"/>
      <path id="Path_105" data-name="Path 105" d="M67.274,195.505v1.037a.389.389,0,0,0,.778,0v-1.037a.389.389,0,0,0-.778,0" fill="#50aa50"/>
      <path id="Path_106" data-name="Path 106" d="M72.083,200.075l.337.354c.346.363.9-.187.55-.55l-.337-.354c-.346-.363-.9.187-.55.55" fill="#50aa50"/>
      <path id="Path_107" data-name="Path 107" d="M72.854,195.44l1.034.059c.5.029.5-.749,0-.778l-1.034-.059c-.5-.029-.5.749,0,.778" fill="#50aa50"/>
      <path id="Path_108" data-name="Path 108" d="M73.956,189.212l.691.691a.389.389,0,0,0,.55-.55l-.691-.691a.389.389,0,0,0-.55.55" fill="#50aa50"/>
      <path id="Path_109" data-name="Path 109" d="M76.953,187.209v1.21a.389.389,0,0,0,.778,0v-1.21a.389.389,0,0,0-.778,0" fill="#50aa50"/>
      <path id="Path_110" data-name="Path 110" d="M78.363,194.487l.343-.52c.276-.419-.4-.809-.672-.393-.114.173-.228.347-.343.52-.276.42.4.81.672.393" fill="#50aa50"/>
      <path id="Path_111" data-name="Path 111" d="M75.726,202.126l.868-.337c.461-.18.26-.932-.207-.75l-.868.337c-.461.179-.261.932.207.75" fill="#50aa50"/>
      <path id="Path_112" data-name="Path 112" d="M79.169,201.041l.863-.179c.49-.1.282-.851-.207-.75l-.863.179c-.49.1-.282.852.207.75" fill="#50aa50"/>
      <path id="Path_113" data-name="Path 113" d="M76.953,204.666v.173a.389.389,0,0,0,.778,0v-.173a.389.389,0,0,0-.778,0" fill="#50aa50"/>
      <path id="Path_114" data-name="Path 114" d="M70.274,216.575l.519-.346c.414-.276.025-.95-.393-.671l-.519.345c-.414.277-.025.951.393.672" fill="#50aa50"/>
      <path id="Path_115" data-name="Path 115" d="M69.821,219.442a2.168,2.168,0,0,1,1.058-.567c.487-.114.281-.864-.207-.75a2.96,2.96,0,0,0-1.4.767c-.362.347.188.9.55.55" fill="#50aa50"/>
      <path id="Path_116" data-name="Path 116" d="M66.617,219.91l.175.344c.228.446.9.053.672-.392l-.175-.345c-.228-.446-.9-.053-.672.393" fill="#50aa50"/>
      <path id="Path_117" data-name="Path 117" d="M63.655,220.746a1.929,1.929,0,0,0,1.343.186c.49-.1.283-.849-.207-.75a1.051,1.051,0,0,1-.743-.108c-.444-.23-.838.441-.393.672" fill="#50aa50"/>
      <path id="Path_118" data-name="Path 118" d="M70.085,213.369l1.553-.2c.49-.061.5-.84,0-.777l-1.553.194c-.49.062-.5.84,0,.778" fill="#50aa50"/>
      <path id="Path_119" data-name="Path 119" d="M139.745,179.284l25.114-22.705c1.241-1.121-.6-2.95-1.833-1.833l-25.114,22.705c-1.241,1.121.6,2.95,1.833,1.833" fill="#d7e7ff"/>
      <path id="Path_120" data-name="Path 120" d="M168.128,190.865l25.114-22.7c1.241-1.122-.6-2.951-1.833-1.834l-25.114,22.705c-1.241,1.121.6,2.95,1.833,1.833" fill="#d7e7ff"/>
      <path id="Path_121" data-name="Path 121" d="M137.288,199.443q26.317-25.663,52.636-51.327c1.2-1.167-.636-3-1.832-1.834L135.454,197.61c-1.2,1.167.637,3,1.834,1.833" fill="#d7e7ff"/>
      <rect id="Rectangle_6" data-name="Rectangle 6" width="1.129" height="72.438" transform="translate(216.61 39.836)" fill="#415b91"/>
      <path id="Path_122" data-name="Path 122" d="M221.773,112.274a4.6,4.6,0,1,1-4.6-4.6,4.6,4.6,0,0,1,4.6,4.6" fill="#415b91"/>
      <path id="Path_123" data-name="Path 123" d="M217.239,127.7a3.8,3.8,0,0,1-3.775-4.121.608.608,0,1,1,1.217,0,2.923,2.923,0,0,0,.745,2.151,2.886,2.886,0,0,0,1.813.753,3.111,3.111,0,1,0,0-6.222.609.609,0,0,1-.608-.609v-3.38a.608.608,0,1,1,1.216,0v2.814a4.328,4.328,0,0,1-.608,8.614Z" fill="#415b91"/>
      <path id="Path_124" data-name="Path 124" d="M193.092,130.532a.564.564,0,0,1,.014-1.114L218,125.751a.564.564,0,0,1,.164,1.116l-24.889,3.667a.564.564,0,0,1-.179,0" fill="#415b91"/>
      <path id="Path_125" data-name="Path 125" d="M240.868,138.815a.565.565,0,0,1-.165-.056L217.817,126.81a.564.564,0,0,1,.522-1l22.886,11.95a.564.564,0,0,1-.357,1.056" fill="#415b91"/>
      <path id="Path_126" data-name="Path 126" d="M239,186.594,178.046,176a5.869,5.869,0,0,1-4.778-6.787l6.1-35.1a5.87,5.87,0,0,1,6.788-4.778l60.955,10.592a5.869,5.869,0,0,1,4.778,6.788l-6.1,35.1A5.87,5.87,0,0,1,239,186.594" fill="#fff"/>
      <path id="Path_127" data-name="Path 127" d="M239.832,187.425a6.883,6.883,0,0,1-1.18-.1l-60.526-10.516a6.867,6.867,0,0,1-5.588-7.94l6.025-34.668a6.874,6.874,0,0,1,7.938-5.589l60.526,10.518a6.866,6.866,0,0,1,5.59,7.938l-6.025,34.669a6.878,6.878,0,0,1-6.76,5.69m-54.508-57.361a5.318,5.318,0,0,0-5.229,4.4l-6.024,34.668a5.311,5.311,0,0,0,4.322,6.141l60.526,10.516a5.314,5.314,0,0,0,6.14-4.322l6.024-34.668a5.307,5.307,0,0,0-4.322-6.14l-60.527-10.517a5.221,5.221,0,0,0-.91-.079" fill="#415b91"/>
      <path id="Path_128" data-name="Path 128" d="M238.544,182.794l-58.786-10.215a3.749,3.749,0,0,1-3.052-4.336l5.569-32.05a3.75,3.75,0,0,1,4.336-3.053L245.4,143.355a3.751,3.751,0,0,1,3.053,4.337l-5.569,32.049a3.75,3.75,0,0,1-4.337,3.053" fill="#b6d0fb"/>
      <path id="Path_129" data-name="Path 129" d="M239.082,183.606a4.7,4.7,0,0,1-.808-.07l-58.512-10.167a4.668,4.668,0,0,1-3.8-5.4l5.521-31.776a4.668,4.668,0,0,1,5.4-3.8l58.512,10.168a4.671,4.671,0,0,1,3.8,5.4l-5.521,31.775a4.67,4.67,0,0,1-4.589,3.87m-.543-1.6a3.11,3.11,0,0,0,3.6-2.532l5.522-31.776a3.115,3.115,0,0,0-2.532-3.6L186.615,133.93a3.119,3.119,0,0,0-3.6,2.533l-5.521,31.775a3.112,3.112,0,0,0,2.533,3.6Z" fill="#405b91"/>
      <path id="Path_130" data-name="Path 130" d="M210.656,177.948l15.211-13.941,8.419,18.047Z" fill="#fff"/>
      <path id="Path_131" data-name="Path 131" d="M235.176,182.735l-25.647-4.457,16.51-15.131Zm-23.391-5.117,21.611,3.755-7.7-16.506Z" fill="#415b91"/>
      <path id="Path_132" data-name="Path 132" d="M180.579,172.722l26.968-24.716L222.471,180Z" fill="#fff"/>
      <path id="Path_133" data-name="Path 133" d="M223.361,180.681l-43.91-7.63,28.266-25.9Zm-41.655-8.29,39.875,6.929-14.206-30.455Z" fill="#415b91"/>
      <path id="Path_134" data-name="Path 134" d="M239.613,152.692a3.771,3.771,0,1,1-3.07-4.361,3.772,3.772,0,0,1,3.07,4.361" fill="#fff"/>
      <path id="Path_135" data-name="Path 135" d="M235.906,156.337a4.354,4.354,0,0,1-.743-.065,4.261,4.261,0,1,1,.743.065m-.015-7.545a3.259,3.259,0,1,0,.563.049,3.229,3.229,0,0,0-.563-.049" fill="#415b91"/>
      <rect id="Rectangle_7" data-name="Rectangle 7" width="56.527" height="6.22" transform="translate(207.278 37.399)" fill="#b6d0fb"/>
      <path id="Path_136" data-name="Path 136" d="M312.929,166H294.163V.083h18.766Zm-16.91-1.856h15.053V1.939H296.019Z" fill="#415b91"/>
      <path id="Path_137" data-name="Path 137" d="M312.694,18.3H294.4V0h18.3Zm-16.415-1.88h14.534V1.881H296.279Z" fill="#415b91"/>
      <rect id="Rectangle_8" data-name="Rectangle 8" width="1.881" height="23.213" transform="translate(294.674 1.606) rotate(-45)" fill="#415b91"/>
      <rect id="Rectangle_9" data-name="Rectangle 9" width="23.213" height="1.881" transform="matrix(0.707, -0.707, 0.707, 0.707, 294.674, 16.69)" fill="#415b91"/>
      <path id="Path_138" data-name="Path 138" d="M312.694,34.709H294.4v-18.3h18.3Zm-16.415-1.88h14.534V18.3H296.279Z" fill="#415b91"/>
      <rect id="Rectangle_10" data-name="Rectangle 10" width="1.881" height="23.213" transform="translate(294.674 18.02) rotate(-45)" fill="#415b91"/>
      <rect id="Rectangle_11" data-name="Rectangle 11" width="23.213" height="1.881" transform="matrix(0.707, -0.707, 0.707, 0.707, 294.674, 33.104)" fill="#415b91"/>
      <path id="Path_139" data-name="Path 139" d="M312.694,51.124H294.4v-18.3h18.3Zm-16.415-1.881h14.534V34.709H296.279Z" fill="#415b91"/>
      <rect id="Rectangle_12" data-name="Rectangle 12" width="1.881" height="23.213" transform="translate(294.674 34.434) rotate(-45)" fill="#415b91"/>
      <rect id="Rectangle_13" data-name="Rectangle 13" width="23.213" height="1.881" transform="matrix(0.707, -0.707, 0.707, 0.707, 294.674, 49.519)" fill="#415b91"/>
      <path id="Path_140" data-name="Path 140" d="M312.694,67.538H294.4v-18.3h18.3Zm-16.415-1.88h14.534V51.124H296.279Z" fill="#415b91"/>
      <rect id="Rectangle_14" data-name="Rectangle 14" width="1.881" height="23.213" transform="translate(294.674 50.849) rotate(-45)" fill="#415b91"/>
      <rect id="Rectangle_15" data-name="Rectangle 15" width="23.213" height="1.881" transform="matrix(0.707, -0.707, 0.707, 0.707, 294.674, 65.933)" fill="#415b91"/>
      <path id="Path_141" data-name="Path 141" d="M312.694,83.952H294.4v-18.3h18.3Zm-16.415-1.88h14.534V67.538H296.279Z" fill="#415b91"/>
      <rect id="Rectangle_16" data-name="Rectangle 16" width="1.881" height="23.213" transform="translate(294.674 67.263) rotate(-45)" fill="#415b91"/>
      <rect id="Rectangle_17" data-name="Rectangle 17" width="23.213" height="1.881" transform="matrix(0.707, -0.707, 0.707, 0.707, 294.674, 82.347)" fill="#415b91"/>
      <path id="Path_142" data-name="Path 142" d="M312.694,100.367H294.4V82.072h18.3Zm-16.415-1.881h14.534V83.952H296.279Z" fill="#415b91"/>
      <rect id="Rectangle_18" data-name="Rectangle 18" width="1.881" height="23.213" transform="translate(294.674 83.677) rotate(-45)" fill="#415b91"/>
      <rect id="Rectangle_19" data-name="Rectangle 19" width="23.213" height="1.881" transform="matrix(0.707, -0.707, 0.707, 0.707, 294.674, 98.761)" fill="#415b91"/>
      <path id="Path_143" data-name="Path 143" d="M312.694,116.781H294.4V98.486h18.3ZM296.279,114.9h14.534V100.366H296.279Z" fill="#415b91"/>
      <rect id="Rectangle_20" data-name="Rectangle 20" width="1.881" height="23.213" transform="translate(294.674 100.092) rotate(-45)" fill="#415b91"/>
      <rect id="Rectangle_21" data-name="Rectangle 21" width="23.213" height="1.881" transform="matrix(0.707, -0.707, 0.707, 0.707, 294.674, 115.176)" fill="#415b91"/>
      <path id="Path_144" data-name="Path 144" d="M312.694,133.2H294.4V114.9h18.3Zm-16.415-1.88h14.534V116.781H296.279Z" fill="#415b91"/>
      <rect id="Rectangle_22" data-name="Rectangle 22" width="1.881" height="23.213" transform="translate(294.674 116.506) rotate(-45)" fill="#415b91"/>
      <rect id="Rectangle_23" data-name="Rectangle 23" width="23.213" height="1.881" transform="matrix(0.707, -0.707, 0.707, 0.707, 294.674, 131.59)" fill="#415b91"/>
      <path id="Path_145" data-name="Path 145" d="M312.694,149.609H294.4V131.314h18.3Zm-16.415-1.88h14.534V133.2H296.279Z" fill="#415b91"/>
      <rect id="Rectangle_24" data-name="Rectangle 24" width="1.881" height="23.213" transform="translate(294.674 132.92) rotate(-45)" fill="#415b91"/>
      <rect id="Rectangle_25" data-name="Rectangle 25" width="23.213" height="1.881" transform="matrix(0.707, -0.707, 0.707, 0.707, 294.674, 148.004)" fill="#415b91"/>
      <path id="Path_146" data-name="Path 146" d="M312.694,166.024H294.4V147.729h18.3Zm-16.415-1.881h14.534V149.609H296.279Z" fill="#415b91"/>
      <rect id="Rectangle_26" data-name="Rectangle 26" width="1.881" height="23.213" transform="matrix(0.707, -0.707, 0.707, 0.707, 294.674, 149.334)" fill="#415b91"/>
      <rect id="Rectangle_27" data-name="Rectangle 27" width="23.214" height="1.881" transform="matrix(0.707, -0.707, 0.707, 0.707, 294.674, 164.419)" fill="#415b91"/>
      <path id="Path_147" data-name="Path 147" d="M345.355,34.462h-18.3v-18.3h18.3Zm-16.414-1.88h14.534V18.048H328.941Z" fill="#415b91"/>
      <rect id="Rectangle_28" data-name="Rectangle 28" width="23.213" height="1.881" transform="matrix(0.707, -0.707, 0.707, 0.707, 327.335, 32.857)" fill="#415b91"/>
      <rect id="Rectangle_29" data-name="Rectangle 29" width="1.881" height="23.213" transform="translate(327.336 17.773) rotate(-45)" fill="#415b91"/>
      <path id="Path_148" data-name="Path 148" d="M328.941,34.462h-18.3v-18.3h18.3Zm-16.415-1.88H327.06V18.048H312.526Z" fill="#415b91"/>
      <rect id="Rectangle_30" data-name="Rectangle 30" width="23.213" height="1.881" transform="matrix(0.707, -0.707, 0.707, 0.707, 310.921, 32.857)" fill="#415b91"/>
      <rect id="Rectangle_31" data-name="Rectangle 31" width="1.881" height="23.213" transform="translate(310.921 17.773) rotate(-45)" fill="#415b91"/>
      <path id="Path_149" data-name="Path 149" d="M312.526,34.462h-18.3v-18.3h18.3Zm-16.414-1.88h14.534V18.048H296.112Z" fill="#415b91"/>
      <path id="Path_150" data-name="Path 150" d="M296.112,34.462h-18.3v-18.3h18.3ZM279.7,32.582h14.534V18.048H279.7Z" fill="#415b91"/>
      <rect id="Rectangle_32" data-name="Rectangle 32" width="23.213" height="1.881" transform="matrix(0.707, -0.707, 0.707, 0.707, 278.093, 32.857)" fill="#415b91"/>
      <rect id="Rectangle_33" data-name="Rectangle 33" width="1.881" height="23.213" transform="translate(278.093 17.773) rotate(-45)" fill="#415b91"/>
      <path id="Path_151" data-name="Path 151" d="M279.7,34.462H261.4v-18.3H279.7Zm-16.415-1.88h14.534V18.048H263.283Z" fill="#415b91"/>
      <rect id="Rectangle_34" data-name="Rectangle 34" width="23.214" height="1.881" transform="matrix(0.707, -0.707, 0.707, 0.707, 261.678, 32.857)" fill="#415b91"/>
      <rect id="Rectangle_35" data-name="Rectangle 35" width="1.881" height="23.213" transform="translate(261.678 17.773) rotate(-45)" fill="#415b91"/>
      <path id="Path_152" data-name="Path 152" d="M263.283,34.462H244.988v-18.3h18.295Zm-16.414-1.88H261.4V18.048H246.869Z" fill="#415b91"/>
      <path id="Path_153" data-name="Path 153" d="M245.929,34.462H229.515a.94.94,0,0,1-.665-1.605l16.414-16.415,1.33,1.33L231.785,32.581H245.54l16.138-16.139,1.33,1.33L246.594,34.187a.942.942,0,0,1-.665.275" fill="#415b91"/>
      <rect id="Rectangle_36" data-name="Rectangle 36" width="1.881" height="23.213" transform="translate(245.264 17.773) rotate(-45)" fill="#415b91"/>
      <path id="Path_154" data-name="Path 154" d="M312.969,184.3H294.163V166h18.806ZM296.1,182.417h14.939V167.883H296.1Z" fill="#415b91"/>
      <path id="Path_155" data-name="Path 155" d="M311.319,184.023l-16.872-16.414,1.367-1.33,16.872,16.414Z" fill="#415b91"/>
      <path id="Path_156" data-name="Path 156" d="M295.814,184.023l-1.367-1.33,16.872-16.414,1.368,1.33Z" fill="#415b91"/>
      <path id="Path_157" data-name="Path 157" d="M312.969,249.955H294.163V231.66h18.806ZM296.1,248.074h14.939V233.54H296.1Z" fill="#415b91"/>
      <path id="Path_158" data-name="Path 158" d="M311.319,249.68l-16.872-16.414,1.367-1.33,16.872,16.414Z" fill="#415b91"/>
      <path id="Path_159" data-name="Path 159" d="M295.814,249.68l-1.367-1.33,16.872-16.414,1.368,1.33Z" fill="#415b91"/>
      <path id="Path_160" data-name="Path 160" d="M312.969,199.157H294.163V180.862h18.806ZM296.1,197.276h14.939V182.742H296.1Z" fill="#415b91"/>
      <path id="Path_161" data-name="Path 161" d="M311.319,198.881l-16.872-16.414,1.367-1.33,16.872,16.414Z" fill="#415b91"/>
      <path id="Path_162" data-name="Path 162" d="M295.814,198.881l-1.367-1.33,16.872-16.414,1.368,1.33Z" fill="#415b91"/>
      <path id="Path_163" data-name="Path 163" d="M312.969,215.571H294.163V197.276h18.806ZM296.1,213.69h14.939V199.156H296.1Z" fill="#415b91"/>
      <path id="Path_164" data-name="Path 164" d="M311.319,215.3l-16.872-16.414,1.367-1.33,16.872,16.414Z" fill="#415b91"/>
      <path id="Path_165" data-name="Path 165" d="M295.814,215.3l-1.367-1.33,16.872-16.414,1.368,1.33Z" fill="#415b91"/>
      <path id="Path_166" data-name="Path 166" d="M312.969,231.985H294.163V213.69h18.806ZM296.1,230.1h14.939V215.57H296.1Z" fill="#415b91"/>
      <path id="Path_167" data-name="Path 167" d="M311.319,231.71,294.447,215.3l1.367-1.33,16.872,16.414Z" fill="#415b91"/>
      <path id="Path_168" data-name="Path 168" d="M295.814,231.71l-1.367-1.33,16.872-16.414,1.368,1.33Z" fill="#415b91"/>
      <path id="Path_169" data-name="Path 169" d="M103.1,99.555a1.556,1.556,0,0,0,0-3.111,1.556,1.556,0,0,0,0,3.111" fill="#405b91"/>
      <path id="Path_170" data-name="Path 170" d="M271.794,67.06a1.556,1.556,0,0,0,0-3.111,1.556,1.556,0,0,0,0,3.111" fill="#405b91"/>
      <line id="Line_1" data-name="Line 1" x2="0.691" transform="translate(341.624 176.817)" fill="#405b91"/>
      <path id="Path_171" data-name="Path 171" d="M341.624,178.373h.691a1.556,1.556,0,1,0,0-3.111h-.691a1.556,1.556,0,1,0,0,3.111" fill="#405b91"/>
      <path id="Path_172" data-name="Path 172" d="M41.563,201.188a1.556,1.556,0,0,0,0-3.111,1.556,1.556,0,0,0,0,3.111" fill="#405b91"/>
      <path id="Path_173" data-name="Path 173" d="M190.211,51.849a1.556,1.556,0,0,0,0-3.111,1.556,1.556,0,0,0,0,3.111" fill="#405b91"/>
    </g>
  </g>
</svg>
